<svg width="952" height="32" viewBox="0 0 952 32" fill="none" xmlns="http://www.w3.org/2000/svg">
<path d="M10 8L6.75 11.25C7.06 11.37 7.31 11.52 7.52 11.64C7.89 11.87 8.11 12 8.67 12C9.23 12 9.45 11.87 9.82 11.64C10.28 11.37 10.9 11 12.01 11C13.12 11 13.74 11.37 14.19 11.64C14.56 11.86 14.79 12 15.34 12C15.89 12 16.12 11.87 16.49 11.64C16.61 11.57 16.75 11.49 16.9 11.41L10.48 5C8.93 3.45 7.5 2.99 5 3V5.5C6.82 5.49 7.89 5.89 9 7L10 8ZM5.35 15.5C5.9 15.5 6.13 15.64 6.5 15.86C6.95 16.13 7.57 16.5 8.68 16.5C9.79 16.5 10.41 16.13 10.86 15.86C11.23 15.63 11.45 15.5 12.01 15.5C12.56 15.5 12.79 15.64 13.16 15.86C13.61 16.13 14.23 16.5 15.34 16.5C16.45 16.5 17.07 16.13 17.52 15.86C17.89 15.63 18.11 15.5 18.67 15.5C19.22 15.5 19.45 15.64 19.82 15.86C20.27 16.13 20.88 16.49 21.98 16.5V14.5C21.43 14.5 21.2 14.36 20.83 14.14C20.38 13.87 19.76 13.5 18.65 13.5C17.54 13.5 16.92 13.87 16.47 14.14C16.1 14.37 15.87 14.5 15.32 14.5C14.77 14.5 14.54 14.36 14.17 14.14C13.72 13.87 13.1 13.5 11.99 13.5C10.88 13.5 10.26 13.87 9.81 14.14C9.44 14.37 9.22 14.5 8.66 14.5C8.11 14.5 7.88 14.36 7.51 14.14C7.06 13.87 6.44 13.5 5.33 13.5C4.22 13.5 3.6 13.87 3.15 14.14C2.78 14.37 2.56 14.5 2 14.5V16.5C3.11 16.5 3.73 16.13 4.2 15.86C4.57 15.63 4.8 15.5 5.35 15.5ZM18.67 18C17.56 18 16.94 18.37 16.49 18.64C16.12 18.87 15.89 19 15.34 19C14.79 19 14.56 18.86 14.19 18.64C13.74 18.37 13.12 18 12.01 18C10.9 18 10.28 18.37 9.82 18.64C9.45 18.87 9.23 19 8.67 19C8.11 19 7.89 18.87 7.52 18.64C7.07 18.37 6.45 18 5.34 18C4.23 18 3.61 18.37 3.15 18.64C2.78 18.87 2.56 19 2 19V21C3.11 21 3.73 20.63 4.19 20.36C4.56 20.13 4.79 20 5.34 20C5.89 20 6.12 20.13 6.49 20.36C6.94 20.63 7.56 21 8.67 21C9.78 21 10.4 20.63 10.86 20.36C11.23 20.13 11.45 20 12.01 20C12.56 20 12.79 20.14 13.16 20.36C13.61 20.63 14.23 21 15.34 21C16.45 21 17.06 20.63 17.52 20.36C17.89 20.13 18.11 20 18.67 20C19.22 20 19.45 20.14 19.82 20.36C20.27 20.63 20.89 21 22 21V19C21.44 19 21.22 18.87 20.85 18.64C20.4 18.37 19.78 18 18.67 18Z" fill="#DEE2E6"/>
<path d="M16.5 8C17.8807 8 19 6.88071 19 5.5C19 4.11929 17.8807 3 16.5 3C15.1193 3 14 4.11929 14 5.5C14 6.88071 15.1193 8 16.5 8Z" fill="#DEE2E6"/>
<path d="M40.2578 5.625V6.85938H34.7734V17H33.2734V5.625H40.2578ZM34.4219 10.2578H37.5234C38.3568 10.2578 39.0599 10.3984 39.6328 10.6797C40.2057 10.9557 40.6406 11.3438 40.9375 11.8438C41.2344 12.3438 41.3828 12.9297 41.3828 13.6016C41.3828 14.1016 41.2995 14.5599 41.1328 14.9766C40.9661 15.388 40.7188 15.7474 40.3906 16.0547C40.0625 16.3568 39.6589 16.5911 39.1797 16.7578C38.7005 16.9193 38.1484 17 37.5234 17H33.2734V5.625H34.7812V15.7734H37.5234C38.0807 15.7734 38.5312 15.6719 38.875 15.4688C39.224 15.2604 39.4792 14.9896 39.6406 14.6562C39.8021 14.3229 39.8828 13.9661 39.8828 13.5859C39.8828 13.2057 39.8021 12.8568 39.6406 12.5391C39.4792 12.2214 39.224 11.9688 38.875 11.7812C38.5312 11.5885 38.0807 11.4922 37.5234 11.4922H34.4219V10.2578ZM48.1797 15.5547V11.2031C48.1797 10.8698 48.112 10.5807 47.9766 10.3359C47.8464 10.0859 47.6484 9.89323 47.3828 9.75781C47.1172 9.6224 46.7891 9.55469 46.3984 9.55469C46.0339 9.55469 45.7135 9.61719 45.4375 9.74219C45.1667 9.86719 44.9531 10.0312 44.7969 10.2344C44.6458 10.4375 44.5703 10.6562 44.5703 10.8906H43.125C43.125 10.5885 43.2031 10.2891 43.3594 9.99219C43.5156 9.69531 43.7396 9.42708 44.0312 9.1875C44.3281 8.94271 44.6823 8.75 45.0938 8.60938C45.5104 8.46354 45.974 8.39062 46.4844 8.39062C47.099 8.39062 47.6406 8.49479 48.1094 8.70312C48.5833 8.91146 48.9531 9.22656 49.2188 9.64844C49.4896 10.0651 49.625 10.5885 49.625 11.2188V15.1562C49.625 15.4375 49.6484 15.737 49.6953 16.0547C49.7474 16.3724 49.8229 16.6458 49.9219 16.875V17H48.4141C48.3411 16.8333 48.2839 16.612 48.2422 16.3359C48.2005 16.0547 48.1797 15.7943 48.1797 15.5547ZM48.4297 11.875L48.4453 12.8906H46.9844C46.5729 12.8906 46.2057 12.9245 45.8828 12.9922C45.5599 13.0547 45.2891 13.151 45.0703 13.2812C44.8516 13.4115 44.6849 13.5755 44.5703 13.7734C44.4557 13.9661 44.3984 14.1927 44.3984 14.4531C44.3984 14.7188 44.4583 14.9609 44.5781 15.1797C44.6979 15.3984 44.8776 15.5729 45.1172 15.7031C45.362 15.8281 45.6615 15.8906 46.0156 15.8906C46.4583 15.8906 46.849 15.7969 47.1875 15.6094C47.526 15.4219 47.7943 15.1927 47.9922 14.9219C48.1953 14.651 48.3047 14.388 48.3203 14.1328L48.9375 14.8281C48.901 15.0469 48.8021 15.2891 48.6406 15.5547C48.4792 15.8203 48.263 16.0755 47.9922 16.3203C47.7266 16.5599 47.4089 16.7604 47.0391 16.9219C46.6745 17.0781 46.263 17.1562 45.8047 17.1562C45.2318 17.1562 44.7292 17.0443 44.2969 16.8203C43.8698 16.5964 43.5365 16.2969 43.2969 15.9219C43.0625 15.5417 42.9453 15.1172 42.9453 14.6484C42.9453 14.1953 43.0339 13.7969 43.2109 13.4531C43.388 13.1042 43.6432 12.8151 43.9766 12.5859C44.3099 12.3516 44.7109 12.1745 45.1797 12.0547C45.6484 11.9349 46.1719 11.875 46.75 11.875H48.4297ZM55.2812 15.9688C55.625 15.9688 55.9427 15.8984 56.2344 15.7578C56.526 15.6172 56.7656 15.4245 56.9531 15.1797C57.1406 14.9297 57.2474 14.6458 57.2734 14.3281H58.6484C58.6224 14.8281 58.4531 15.2943 58.1406 15.7266C57.8333 16.1536 57.4297 16.5 56.9297 16.7656C56.4297 17.026 55.8802 17.1562 55.2812 17.1562C54.6458 17.1562 54.0911 17.0443 53.6172 16.8203C53.1484 16.5964 52.7578 16.2891 52.4453 15.8984C52.138 15.5078 51.9062 15.0599 51.75 14.5547C51.599 14.0443 51.5234 13.5052 51.5234 12.9375V12.6094C51.5234 12.0417 51.599 11.5052 51.75 11C51.9062 10.4896 52.138 10.0391 52.4453 9.64844C52.7578 9.25781 53.1484 8.95052 53.6172 8.72656C54.0911 8.5026 54.6458 8.39062 55.2812 8.39062C55.9427 8.39062 56.5208 8.52604 57.0156 8.79688C57.5104 9.0625 57.8984 9.42708 58.1797 9.89062C58.4661 10.349 58.6224 10.8698 58.6484 11.4531H57.2734C57.2474 11.1042 57.1484 10.7891 56.9766 10.5078C56.8099 10.2266 56.5807 10.0026 56.2891 9.83594C56.0026 9.66406 55.6667 9.57812 55.2812 9.57812C54.8385 9.57812 54.4661 9.66667 54.1641 9.84375C53.8672 10.0156 53.6302 10.25 53.4531 10.5469C53.2812 10.8385 53.1562 11.1641 53.0781 11.5234C53.0052 11.8776 52.9688 12.2396 52.9688 12.6094V12.9375C52.9688 13.3073 53.0052 13.6719 53.0781 14.0312C53.151 14.3906 53.2734 14.7161 53.4453 15.0078C53.6224 15.2995 53.8594 15.5339 54.1562 15.7109C54.4583 15.8828 54.8333 15.9688 55.2812 15.9688ZM63.7812 17.1562C63.1927 17.1562 62.6589 17.0573 62.1797 16.8594C61.7057 16.6562 61.2969 16.3724 60.9531 16.0078C60.6146 15.6432 60.3542 15.2109 60.1719 14.7109C59.9896 14.2109 59.8984 13.6641 59.8984 13.0703V12.7422C59.8984 12.0547 60 11.4427 60.2031 10.9062C60.4062 10.3646 60.6823 9.90625 61.0312 9.53125C61.3802 9.15625 61.776 8.8724 62.2188 8.67969C62.6615 8.48698 63.1198 8.39062 63.5938 8.39062C64.1979 8.39062 64.7188 8.49479 65.1562 8.70312C65.599 8.91146 65.9609 9.20312 66.2422 9.57812C66.5234 9.94792 66.7318 10.3854 66.8672 10.8906C67.0026 11.3906 67.0703 11.9375 67.0703 12.5312V13.1797H60.7578V12H65.625V11.8906C65.6042 11.5156 65.526 11.151 65.3906 10.7969C65.2604 10.4427 65.0521 10.151 64.7656 9.92188C64.4792 9.69271 64.0885 9.57812 63.5938 9.57812C63.2656 9.57812 62.9635 9.64844 62.6875 9.78906C62.4115 9.92448 62.1745 10.1276 61.9766 10.3984C61.7786 10.6693 61.625 11 61.5156 11.3906C61.4062 11.7812 61.3516 12.2318 61.3516 12.7422V13.0703C61.3516 13.4714 61.4062 13.849 61.5156 14.2031C61.6302 14.5521 61.7943 14.8594 62.0078 15.125C62.2266 15.3906 62.4896 15.599 62.7969 15.75C63.1094 15.901 63.4635 15.9766 63.8594 15.9766C64.3698 15.9766 64.8021 15.8724 65.1562 15.6641C65.5104 15.4557 65.8203 15.1771 66.0859 14.8281L66.9609 15.5234C66.7786 15.7995 66.5469 16.0625 66.2656 16.3125C65.9844 16.5625 65.638 16.7656 65.2266 16.9219C64.8203 17.0781 64.3385 17.1562 63.7812 17.1562ZM70.3203 14.7109L74.2188 8.54688H75.6719V17H74.2188V10.8359L70.3203 17H68.8828V8.54688H70.3203V14.7109ZM73.4297 5.48438H74.6016C74.6016 5.89062 74.5078 6.2526 74.3203 6.57031C74.1328 6.88281 73.8646 7.1276 73.5156 7.30469C73.1667 7.48177 72.7526 7.57031 72.2734 7.57031C71.5495 7.57031 70.9766 7.3776 70.5547 6.99219C70.138 6.60156 69.9297 6.09896 69.9297 5.48438H71.1016C71.1016 5.79167 71.1901 6.0625 71.3672 6.29688C71.5443 6.53125 71.8464 6.64844 72.2734 6.64844C72.6901 6.64844 72.987 6.53125 73.1641 6.29688C73.3411 6.0625 73.4297 5.79167 73.4297 5.48438ZM83.7266 12.2109V13.3828H79.2578V12.2109H83.7266ZM79.5625 8.54688V17H78.1172V8.54688H79.5625ZM84.8984 8.54688V17H83.4453V8.54688H84.8984Z" fill="black"/>
<line y1="31.5" x2="952" y2="31.5" stroke="#DEE2E6"/>
</svg>

